<svg xmlns="http://www.w3.org/2000/svg" viewBox="0 0 32 32" width="32" height="32">
  <!-- Sun -->
  <circle cx="13" cy="13" r="7" fill="#f59e0b" />
  
  <!-- Cloud -->
  <path d="M19 14.5c0-.83-.67-1.5-1.5-1.5-.13 0-.26.02-.38.05C16.68 11.23 15.01 10 13 10c-2.48 0-4.5 2.02-4.5 4.5 0 .17.01.34.03.5H8.5C6.57 15 5 16.57 5 18.5S6.57 22 8.5 22h13c1.93 0 3.5-1.57 3.5-3.5 0-1.85-1.43-3.37-3.25-3.48.16-.32.25-.68.25-1.06 0-1.38-1.12-2.5-2.5-2.5-.32 0-.62.06-.9.17C18.82 14.7 18.91 14.6 19 14.5z" fill="#38bdf8" />
  <path d="M19 16c0-.83-.67-1.5-1.5-1.5-.13 0-.26.02-.38.05C16.68 12.73 15.01 11.5 13 11.5c-2.48 0-4.5 2.02-4.5 4.5 0 .17.01.34.03.5H8.5C6.57 16.5 5 18.07 5 20s1.57 3.5 3.5 3.5h13c1.93 0 3.5-1.57 3.5-3.5 0-1.85-1.43-3.37-3.25-3.48.16-.32.25-.68.25-1.06 0-1.38-1.12-2.5-2.5-2.5-.32 0-.62.06-.9.17C18.82 16.2 18.91 16.1 19 16z" fill="#7dd3fc" />
</svg>
